<svg width="21" height="20" viewBox="0 0 21 20" fill="none" xmlns="http://www.w3.org/2000/svg">
<path d="M13.8337 10.75V14.25C13.8337 17.1667 12.667 18.3334 9.75033 18.3334H6.25033C3.33366 18.3334 2.16699 17.1667 2.16699 14.25V10.75C2.16699 7.83335 3.33366 6.66669 6.25033 6.66669H9.75033C12.667 6.66669 13.8337 7.83335 13.8337 10.75Z" stroke="white" stroke-width="1.5" stroke-linecap="round" stroke-linejoin="round"/>
<path d="M18.8337 5.75002V9.25002C18.8337 12.1667 17.667 13.3334 14.7503 13.3334H13.8337V10.75C13.8337 7.83335 12.667 6.66669 9.75033 6.66669H7.16699V5.75002C7.16699 2.83335 8.33366 1.66669 11.2503 1.66669H14.7503C17.667 1.66669 18.8337 2.83335 18.8337 5.75002Z" stroke="white" stroke-width="1.5" stroke-linecap="round" stroke-linejoin="round"/>
</svg>
